<mxfile host="65bd71144e">
    <diagram id="fhnEadlHINhfprwiYyvm" name="Page-1">
        <mxGraphModel dx="3629" dy="896" grid="1" gridSize="10" guides="1" tooltips="1" connect="1" arrows="1" fold="1" page="1" pageScale="1" pageWidth="1169" pageHeight="827" math="0" shadow="0">
            <root>
                <mxCell id="0"/>
                <mxCell id="1" parent="0"/>
                <mxCell id="105" value="Database" style="shape=cylinder3;whiteSpace=wrap;html=1;boundedLbl=1;backgroundOutline=1;size=15;rounded=0;shadow=0;glass=0;fillStyle=solid;strokeColor=#6c8ebf;strokeWidth=1;fontSize=24;fillColor=#dae8fc;gradientColor=#7ea6e0;gradientDirection=south;sketch=1;curveFitting=1;jiggle=2;" parent="1" vertex="1">
                    <mxGeometry x="-1590" y="166" width="110" height="170" as="geometry"/>
                </mxCell>
                <mxCell id="107" value="&lt;b&gt;&lt;font color=&quot;#ffffff&quot; style=&quot;font-size: 20px;&quot;&gt;API&lt;/font&gt;&lt;/b&gt;" style="ellipse;shape=cloud;whiteSpace=wrap;html=1;fillColor=#C4C4C4;rounded=0;sketch=1;curveFitting=1;jiggle=2;" vertex="1" parent="1">
                    <mxGeometry x="-2150" y="50" width="240" height="150" as="geometry"/>
                </mxCell>
                <mxCell id="110" value="&lt;font color=&quot;#000000&quot;&gt;Provider&lt;/font&gt;" style="html=1;whiteSpace=wrap;shape=isoCube2;backgroundOutline=1;isoAngle=15;shadow=0;labelBackgroundColor=none;fontSize=20;fillColor=#d5e8d4;gradientColor=#97d077;gradientDirection=south;strokeColor=#82b366;rounded=0;sketch=1;curveFitting=1;jiggle=2;" vertex="1" parent="1">
                    <mxGeometry x="-2000" y="326" width="190" height="190" as="geometry"/>
                </mxCell>
                <mxCell id="114" value="" style="shape=flexArrow;endArrow=classic;startArrow=classic;html=1;strokeWidth=3;fontSize=20;fontColor=#000000;entryX=0.018;entryY=0.794;entryDx=0;entryDy=0;entryPerimeter=0;rounded=0;sketch=1;curveFitting=1;jiggle=2;fillColor=none;gradientColor=#b3b3b3;strokeColor=#FFFFFF;" edge="1" parent="1" source="110" target="105">
                    <mxGeometry width="100" height="100" relative="1" as="geometry">
                        <mxPoint x="-1500" y="490" as="sourcePoint"/>
                        <mxPoint x="-1400" y="390" as="targetPoint"/>
                    </mxGeometry>
                </mxCell>
                <mxCell id="118" value="" style="verticalLabelPosition=bottom;verticalAlign=top;html=1;shadow=0;dashed=0;strokeWidth=1;shape=mxgraph.android.phone2;glass=1;sketch=1;hachureGap=4;jiggle=2;curveFitting=1;fontFamily=Architects Daughter;fontSource=https%3A%2F%2Ffonts.googleapis.com%2Fcss%3Ffamily%3DArchitects%2BDaughter;fontSize=20;fillColor=#000000;" vertex="1" parent="1">
                    <mxGeometry x="-1610" y="400" width="200" height="390" as="geometry"/>
                </mxCell>
                <mxCell id="123" value="" style="shape=flexArrow;endArrow=classic;startArrow=classic;html=1;sketch=1;hachureGap=4;jiggle=2;curveFitting=1;fontFamily=Architects Daughter;fontSource=https%3A%2F%2Ffonts.googleapis.com%2Fcss%3Ffamily%3DArchitects%2BDaughter;fontSize=16;fontColor=#FFFFFF;entryX=0.008;entryY=0.664;entryDx=0;entryDy=0;entryPerimeter=0;exitX=0.676;exitY=0.951;exitDx=0;exitDy=0;exitPerimeter=0;fillColor=none;gradientColor=#d5739d;strokeColor=#FFFFFF;strokeWidth=3;" edge="1" parent="1" source="110" target="118">
                    <mxGeometry width="100" height="100" relative="1" as="geometry">
                        <mxPoint x="-1890" y="660" as="sourcePoint"/>
                        <mxPoint x="-1790" y="560" as="targetPoint"/>
                    </mxGeometry>
                </mxCell>
                <mxCell id="198" value="" style="shape=flexArrow;endArrow=classic;html=1;sketch=1;hachureGap=4;jiggle=2;curveFitting=1;strokeColor=#FFFFFF;strokeWidth=3;fontFamily=Architects Daughter;fontSource=https%3A%2F%2Ffonts.googleapis.com%2Fcss%3Ffamily%3DArchitects%2BDaughter;fontSize=16;fontColor=#FFFFFF;fillColor=none;entryX=0;entryY=0;entryDx=0;entryDy=45.61496422522204;entryPerimeter=0;exitX=0.494;exitY=0.972;exitDx=0;exitDy=0;exitPerimeter=0;" edge="1" parent="1" source="107" target="110">
                    <mxGeometry width="50" height="50" relative="1" as="geometry">
                        <mxPoint x="-2150" y="390" as="sourcePoint"/>
                        <mxPoint x="-1970" y="200" as="targetPoint"/>
                    </mxGeometry>
                </mxCell>
            </root>
        </mxGraphModel>
    </diagram>
</mxfile>